<?xml version="1.0" encoding="UTF-8" standalone="no" ?>
<!DOCTYPE svg PUBLIC "-//W3C//DTD SVG 1.1//EN" "http://www.w3.org/Graphics/SVG/1.1/DTD/svg11.dtd">
<svg xmlns="http://www.w3.org/2000/svg" xmlns:xlink="http://www.w3.org/1999/xlink" version="1.1" width="1280" height="1024" viewBox="0 0 1280 1024" xml:space="preserve">
<desc>Created with Fabric.js 5.3.0</desc>
<defs>
</defs>
<g transform="matrix(1 0 0 1 640 512)" id="background-logo"  >
<rect style="stroke: none; stroke-width: 0; stroke-dasharray: none; stroke-linecap: butt; stroke-dashoffset: 0; stroke-linejoin: miter; stroke-miterlimit: 4; fill: rgb(255,255,255); fill-opacity: 0; fill-rule: nonzero; opacity: 1;"  paint-order="stroke"  x="-640" y="-512" rx="0" ry="0" width="1280" height="1024" />
</g>
<g transform="matrix(1.9211538461538462 0 0 1.9211538461538462 646.548754533751 516.1179548461538)" id="text-logo"  >
<g style=""  paint-order="stroke"   >
		<g transform="matrix(1 0 0 1 0 0)" id="text-logo-path-0"  >
<filter id="SVGID_387189" y="-24.761169296728845%" height="149.52233859345768%" x="-21.031024723690404%" width="142.06204944738082%" >
	<feGaussianBlur in="SourceAlpha" stdDeviation="0"></feGaussianBlur>
	<feOffset dx="4.505494505494505" dy="4.505494505494505" result="oBlur" ></feOffset>
	<feFlood flood-color="rgb(81,18,94)" flood-opacity="1"/>
	<feComposite in2="oBlur" operator="in" />
	<feMerge>
		<feMergeNode></feMergeNode>
		<feMergeNode in="SourceGraphic"></feMergeNode>
	</feMerge>
</filter>
<path style="stroke: rgb(81,18,94); stroke-width: 8.10989010989011; stroke-dasharray: none; stroke-linecap: butt; stroke-dashoffset: 0; stroke-linejoin: miter; stroke-miterlimit: 4; fill: rgb(255,222,89); fill-rule: nonzero; opacity: 1;filter: url(#SVGID_387189);"  paint-order="stroke"  transform=" translate(-218.6559488346575, 23.615000000000002)" d="M 100.12 -65.76 C 100.7 -66.99 98.89 -66.67 98.32 -65.44 C 95.78 -59.94 82.41 -59.2 78.23 -59.2 C 60.27 -59.2 49.04 -70.77 29.11 -70.77 C 12.96 -70.77 7.3 -52.15 13.37 -43.05 C 13.86 -42.31 15.66 -43.95 15.17 -44.69 C 7.79 -55.76 24.93 -57.15 28.95 -57.15 C 43.38 -57.15 56.17 -48.87 78.39 -48.87 C 91.84 -48.87 96.1 -57.24 100.12 -65.76 Z M 71.01 -53.63 C 73.55 -53.63 73.8 -61.17 71.18 -61.17 C 50.43 -61.17 47.97 7.87 22.63 7.87 C 11.64 7.87 9.68 0.33 9.68 -4.35 C 9.68 -4.51 8.94 -13.53 20.34 -12.05 C 21.48 -11.89 20.34 -14.19 19.19 -14.35 C 19.11 -14.35 0.16 -15.66 0.16 -1.07 C 0.16 14.76 14.76 19.52 22.63 19.52 C 66.75 19.52 56.83 -53.63 71.01 -53.63 Z M 103.07 -20.25 C 103.24 -21.07 99.47 -20.75 99.3 -19.93 C 96.76 -6.81 92.82 -5.9 92.66 -5.9 C 88.15 -5.9 91.51 -9.59 94.22 -18.7 C 94.22 -18.61 94.22 -18.61 94.22 -18.53 C 95.61 -22.55 95.37 -31.08 87.08 -31.08 C 82.41 -31.08 78.15 -29.11 77.49 -32.39 C 76.83 -35.26 72.16 -34.44 72.73 -31.41 C 74.13 -24.85 82.57 -25.67 84.95 -25.67 C 87.49 -25.67 86.43 -23.37 85.85 -21.65 C 85.85 -21.57 85.85 -21.57 85.85 -21.65 C 84.13 -15.83 77.65 0.33 89.54 0.33 C 100.45 0.33 102.01 -15.09 103.07 -20.25 Z M 72.24 -13.12 C 72 -12.22 75.77 -12.38 76.01 -13.28 C 77.65 -19.93 79.54 -24.76 78.39 -32.64 C 78.23 -33.37 74.54 -32.96 74.62 -32.14 C 75.77 -24.27 73.88 -19.76 72.24 -13.12 Z M 110.37 -34.36 C 113.57 -33.62 116.69 -35.1 117.26 -37.56 C 117.83 -40.1 115.62 -42.72 112.42 -43.46 C 109.22 -44.2 106.11 -42.72 105.62 -40.26 C 105.04 -37.8 107.17 -35.1 110.37 -34.36 Z M 113.41 -27.39 C 113.98 -29.27 103.98 -32.88 103.4 -31 C 96.76 -9.27 98.48 0.33 107.42 0.33 C 117.75 0.33 119.06 -15.09 120.13 -20.25 C 120.29 -21.07 116.52 -20.75 116.36 -19.93 C 113.73 -6.56 110.62 -5.9 110.54 -5.9 C 107.34 -5.9 107.5 -8.04 113.41 -27.39 Z M 129.56 -22.3 C 130.3 -24.11 125.71 -25.75 124.97 -23.94 C 121.03 -14.19 115.21 0.33 124.8 0.33 C 135.14 0.33 136.45 -15.09 137.51 -20.25 C 137.68 -21.07 133.91 -20.75 133.74 -19.93 C 131.12 -6.56 128 -5.9 127.92 -5.9 C 125.38 -5.9 124.64 -9.92 129.56 -22.3 Z M 135.96 -39.2 C 136.61 -41 126.61 -44.69 125.95 -42.8 C 115.46 -14.51 106.85 23.7 116.6 23.7 C 129.07 23.7 129.07 6.56 125.21 -3.03 C 124.97 -3.77 121.28 -3.28 121.61 -2.54 C 128.25 14.43 119.8 17.47 119.72 17.47 C 113.82 17.47 127.02 -15.01 135.96 -39.2 Z M 153.09 -44.94 C 153.75 -46.74 143.75 -50.43 143.09 -48.54 C 133.58 -22.88 129.56 0.33 140.47 0.33 C 150.8 0.33 152.11 -15.09 153.18 -20.25 C 153.34 -21.07 149.57 -20.75 149.4 -19.93 C 146.78 -6.56 143.66 -5.9 143.58 -5.9 C 137.68 -5.9 144.24 -20.91 153.09 -44.94 Z M 135.87 -38.05 C 135.05 -38.05 133.17 -33.87 134.07 -33.95 C 139.97 -34.11 145.8 -34.19 151.7 -34.36 C 152.52 -34.44 155.23 -38.79 154.16 -38.79 C 148.09 -38.54 141.94 -38.29 135.87 -38.05 Z M 181.22 -20.25 C 181.38 -21.07 177.69 -20.75 177.45 -19.93 C 176.63 -16.07 175.48 -11.48 172.28 -11.48 C 169.66 -11.48 166.79 -22.22 168.02 -26.98 C 167.69 -26.73 167.28 -26.49 166.87 -26.24 C 168.1 -26.65 172.61 -25.42 170.48 -15.91 C 169.17 -10.41 164.98 -4.92 160.88 -4.92 C 158.75 -4.92 158.92 -8.53 160.15 -14.92 C 160.15 -14.92 160.15 -14.92 160.15 -14.84 C 162.28 -24.85 170.15 -28.86 169.9 -22.63 C 169.82 -20.75 172.94 -20.09 173.02 -22.14 C 173.59 -37.06 154.41 -32.23 151.13 -16.81 C 151.13 -16.73 151.13 -16.73 151.13 -16.81 C 149.16 -6.64 155.23 -0.66 160.56 -0.66 C 168.35 -0.66 171.22 -11.81 172.45 -16.73 C 174.41 -25.58 173.35 -29.6 165.89 -27.22 C 165.31 -27.06 164.82 -26.73 164.74 -26.49 C 163.67 -22.55 164.9 -7.87 172.45 -7.87 C 178.27 -7.87 180.89 -19.02 181.22 -20.25 Z M 192.37 -27.47 C 192.95 -29.36 182.94 -32.96 182.37 -31.08 C 178.68 -19.6 178.76 -13.04 177.53 -4.26 C 177.2 -1.64 185.65 1.56 186.06 -1.31 C 187.12 -9.92 188.68 -15.99 192.37 -27.47 Z M 213.69 -20.25 C 213.86 -21.07 210.08 -20.75 209.92 -19.93 C 207.38 -6.81 203.44 -5.9 203.28 -5.9 C 198.77 -5.9 202.13 -9.59 204.84 -18.7 C 204.84 -18.61 204.84 -18.61 204.84 -18.53 C 206.23 -22.55 205.98 -31.08 197.7 -31.08 C 193.11 -31.08 185.57 -22.88 183.76 -20.5 C 181.96 -18.04 185.81 -15.25 187.7 -17.71 C 191.96 -23.53 193.19 -25.67 195.57 -25.67 C 198.11 -25.67 197.05 -23.37 196.47 -21.65 C 196.47 -21.57 196.47 -21.57 196.47 -21.65 C 194.75 -15.83 188.27 0.33 200.16 0.33 C 211.07 0.33 212.63 -15.09 213.69 -20.25 Z M 256.33 -61.83 C 257.07 -63.14 255.43 -63.06 254.69 -61.83 C 248.87 -51.74 259.04 -35.1 276.42 -35.1 C 302.74 -35.1 313.4 -43.79 313.4 -55.1 C 313.4 -57.97 312.09 -70.93 298.48 -70.93 C 260.35 -70.93 296.18 4.84 257.89 4.84 C 249.53 4.84 246.33 -2.54 246.33 -5.99 C 246.33 -6.15 244.69 -25.17 258.38 -20.99 C 259.28 -20.75 260.68 -22.71 259.86 -22.96 C 249.2 -26.16 230.09 -21.65 230.09 -6.15 C 230.09 8.77 243.46 20.91 258.05 20.91 C 311.03 20.91 276.34 -60.93 298.48 -60.93 C 303.32 -60.93 307.83 -59.53 307.83 -54.28 C 307.83 -51.41 299.87 -45.76 277.73 -45.76 C 265.76 -45.76 251.41 -53.38 256.33 -61.83 Z M 326.52 -44.94 C 327.18 -46.74 317.18 -50.43 316.52 -48.54 C 307.01 -22.88 302.99 0.33 313.9 0.33 C 324.23 0.33 325.54 -15.09 326.61 -20.25 C 326.77 -21.07 323 -20.75 322.83 -19.93 C 320.21 -6.56 317.09 -5.9 317.01 -5.9 C 311.11 -5.9 317.67 -20.91 326.52 -44.94 Z M 309.3 -38.05 C 308.48 -38.05 306.6 -33.87 307.5 -33.95 C 313.4 -34.11 319.23 -34.19 325.13 -34.36 C 325.95 -34.44 328.66 -38.79 327.59 -38.79 C 321.52 -38.54 315.37 -38.29 309.3 -38.05 Z M 354.65 -20.25 C 354.81 -21.07 351.12 -20.75 350.88 -19.93 C 350.06 -16.07 348.91 -11.48 345.71 -11.48 C 343.09 -11.48 340.22 -22.22 341.45 -26.98 C 341.12 -26.73 340.71 -26.49 340.3 -26.24 C 341.53 -26.65 346.04 -25.42 343.91 -15.91 C 342.6 -10.41 338.41 -4.92 334.31 -4.92 C 332.18 -4.92 332.35 -8.53 333.58 -14.92 C 333.58 -14.92 333.58 -14.92 333.58 -14.84 C 335.71 -24.85 343.58 -28.86 343.33 -22.63 C 343.25 -20.75 346.37 -20.09 346.45 -22.14 C 347.02 -37.06 327.84 -32.23 324.56 -16.81 C 324.56 -16.73 324.56 -16.73 324.56 -16.81 C 322.59 -6.64 328.66 -0.66 333.99 -0.66 C 341.78 -0.66 344.65 -11.81 345.88 -16.73 C 347.84 -25.58 346.78 -29.6 339.32 -27.22 C 338.74 -27.06 338.25 -26.73 338.17 -26.49 C 337.1 -22.55 338.33 -7.87 345.88 -7.87 C 351.7 -7.87 354.32 -19.02 354.65 -20.25 Z M 379 -20.25 C 379.17 -21.07 375.4 -20.75 375.23 -19.93 C 372.69 -6.81 368.75 -5.9 368.59 -5.9 C 364.08 -5.9 367.44 -9.59 370.15 -18.7 C 370.15 -18.61 370.15 -18.61 370.15 -18.53 C 371.54 -22.55 371.3 -31.08 363.01 -31.08 C 358.34 -31.08 354.08 -29.11 353.42 -32.39 C 352.76 -35.26 348.09 -34.44 348.66 -31.41 C 350.06 -24.85 358.5 -25.67 360.88 -25.67 C 363.42 -25.67 362.36 -23.37 361.78 -21.65 C 361.78 -21.57 361.78 -21.57 361.78 -21.65 C 360.06 -15.83 353.58 0.33 365.47 0.33 C 376.38 0.33 377.94 -15.09 379 -20.25 Z M 348.17 -13.12 C 347.93 -12.22 351.7 -12.38 351.94 -13.28 C 353.58 -19.93 355.47 -24.76 354.32 -32.64 C 354.16 -33.37 350.47 -32.96 350.55 -32.14 C 351.7 -24.27 349.81 -19.76 348.17 -13.12 Z M 405.41 -20.25 C 405.57 -21.07 401.88 -20.75 401.64 -19.93 C 399.91 -13.28 397.04 -5.82 389.58 -5.82 C 386.06 -5.82 383.43 -8.61 384.66 -14.92 C 384.66 -14.92 384.66 -14.92 384.66 -14.84 C 386.79 -25.01 394.42 -28.78 394.42 -22.63 C 394.42 -18.37 390.48 -14.6 383.6 -17.14 C 381.22 -18.04 379.41 -13.45 381.96 -12.55 C 389.66 -9.68 397.54 -16.4 397.54 -22.14 C 397.54 -37.15 378.92 -32.06 375.64 -16.81 C 375.64 -16.73 375.64 -16.73 375.64 -16.81 C 373.43 -5.74 382.2 0.25 387.61 0.25 C 400.73 0.25 405.33 -20.09 405.41 -20.25 Z M 405.24 -13.69 C 403.69 -12.79 406.72 -12.46 408.2 -13.2 C 418.94 -19.02 421.48 -22.63 426.97 -28.78 C 427.79 -29.68 424.1 -29.52 423.37 -28.78 C 417.87 -22.63 415.49 -19.19 405.24 -13.69 Z M 425.01 -28.37 C 427.47 -27.55 428.86 -31.24 426.32 -32.14 C 418.36 -35.01 408.03 -26.81 408.03 -20.09 C 408.03 -15.09 413.61 -13.78 415.9 -12.38 C 419.18 -10.33 420.25 -9.35 420.25 -8.28 C 420.25 -6.4 417.13 -5.74 415.82 -5.74 C 411.48 -5.74 406.72 -6.72 405.33 -10.91 C 405 -11.73 403.11 -10.25 403.36 -9.43 C 404.26 -6.89 408.85 0.16 415.17 0.16 C 419.1 0.16 425.66 -1.8 425.66 -8.45 C 425.66 -14.27 421.15 -15.01 418.69 -16.81 C 417.13 -17.96 417.13 -20.01 417.13 -20.09 C 417.13 -21.48 419.18 -30.5 425.01 -28.37 Z M 405.49 -10.99 C 403.36 -11.56 402.54 -8.28 404.67 -7.71 C 418.2 -4.02 432.96 -6.4 437.14 -20.25 C 437.39 -21.07 433.62 -20.75 433.37 -19.93 C 429.76 -7.71 420.66 -6.89 405.49 -10.99 Z" stroke-linecap="round" />
</g>
</g>
</g>
</svg>